<svg xmlns="http://www.w3.org/2000/svg" xmlns:xlink="http://www.w3.org/1999/xlink" width="179" zoomAndPan="magnify" viewBox="0 0 134.25 32.999998" height="44" preserveAspectRatio="xMidYMid meet" version="1.0"><defs><clipPath id="e0fb420b8b"><path d="M 0 0.0898438 L 30 0.0898438 L 30 32.164062 L 0 32.164062 Z M 0 0.0898438 " clip-rule="nonzero"/></clipPath><clipPath id="0142bb06a3"><path d="M 111 8 L 133.503906 8 L 133.503906 32.164062 L 111 32.164062 Z M 111 8 " clip-rule="nonzero"/></clipPath><clipPath id="2e36c47866"><path d="M 67 0.0898438 L 92 0.0898438 L 92 32 L 67 32 Z M 67 0.0898438 " clip-rule="nonzero"/></clipPath></defs><g clip-path="url(#e0fb420b8b)"><path fill="#ffffff" d="M 29.171875 0.0898438 L 25.96875 18.054688 C 24.316406 27.328125 18.175781 32.070312 10.835938 32.070312 C 3.832031 32.070312 -1.3125 27.5 0.371094 18.054688 L 3.574219 0.0898438 L 9.035156 0.0898438 L 5.832031 18.054688 C 4.828125 23.695312 7.292969 26.699219 11.835938 26.699219 C 16.382812 26.699219 19.550781 23.429688 20.507812 18.054688 L 23.707031 0.0898438 Z M 29.171875 0.0898438 " fill-opacity="1" fill-rule="nonzero"/></g><path fill="#ffffff" d="M 40.992188 26.070312 C 40.101562 26.472656 39.058594 26.742188 38.199219 26.742188 C 36.476562 26.742188 35.488281 25.710938 35.859375 23.609375 L 37.558594 14.066406 L 43.765625 14.066406 L 44.597656 9.363281 L 38.4375 9.363281 L 39.558594 3.09375 L 33.929688 3.675781 L 32.917969 9.367188 L 27.914062 14.070312 L 32.082031 14.070312 L 30.378906 23.609375 C 29.398438 29.117188 32.078125 31.851562 36.957031 31.667969 C 38.640625 31.625 40.003906 31.359375 41.699219 30.730469 Z M 40.992188 26.070312 " fill-opacity="1" fill-rule="nonzero"/><path fill="#ffffff" d="M 49.601562 22.308594 C 49.476562 25.039062 51.523438 27.011719 55.421875 27.011719 C 57.457031 27.011719 60.265625 26.25 61.765625 24.949219 L 64.683594 28.398438 C 61.898438 30.816406 57.839844 31.980469 54.445312 31.980469 C 46.746094 31.980469 43.007812 27.277344 44.269531 20.203125 C 45.464844 13.484375 50.949219 8.644531 58.195312 8.644531 C 65.667969 8.644531 69.519531 13.214844 67.039062 22.308594 Z M 62.546875 17.785156 C 62.695312 14.917969 60.683594 13.484375 57.515625 13.484375 C 54.527344 13.484375 51.824219 14.917969 50.496094 17.785156 Z M 62.546875 17.785156 " fill-opacity="1" fill-rule="nonzero"/><path fill="#ffffff" d="M 112.351562 20.382812 C 111.21875 26.742188 105.90625 31.894531 98.660156 31.894531 C 91.414062 31.894531 87.984375 26.738281 89.117188 20.382812 C 90.242188 14.066406 95.609375 8.871094 102.71875 8.871094 C 109.832031 8.871094 113.476562 14.066406 112.351562 20.382812 Z M 94.644531 20.382812 C 94.042969 23.742188 95.523438 26.875 99.554688 26.875 C 103.585938 26.875 106.183594 23.742188 106.78125 20.382812 C 107.371094 17.066406 105.589844 13.84375 101.882812 13.84375 C 97.890625 13.84375 95.234375 17.066406 94.644531 20.382812 Z M 94.644531 20.382812 " fill-opacity="1" fill-rule="nonzero"/><g clip-path="url(#0142bb06a3)"><path fill="#ffffff" d="M 129.734375 15.1875 C 128.414062 13.707031 126.6875 13.214844 124.5625 13.214844 C 121.933594 13.214844 120.339844 14.023438 120.09375 15.410156 C 119.835938 16.84375 121.007812 17.652344 123.828125 17.828125 C 127.996094 18.097656 133.167969 19.039062 132.125 24.90625 C 131.429688 28.804688 127.613281 32.164062 121.226562 32.164062 C 117.695312 32.164062 114.265625 31.582031 111.605469 28.222656 L 115.015625 24.324219 C 116.289062 26.070312 119.683594 27.371094 122.164062 27.417969 C 124.242188 27.460938 126.378906 26.386719 126.667969 24.773438 C 126.9375 23.25 125.78125 22.625 122.644531 22.445312 C 118.488281 22.128906 113.730469 20.609375 114.625 15.589844 C 115.535156 10.484375 121.199219 8.691406 125.277344 8.691406 C 128.765625 8.691406 131.273438 9.363281 133.453125 11.605469 Z M 129.734375 15.1875 " fill-opacity="1" fill-rule="nonzero"/></g><g clip-path="url(#2e36c47866)"><path fill="#ffffff" d="M 81.695312 21.34375 L 91.386719 9.632812 L 84.507812 9.632812 L 75.203125 21.132812 L 78.953125 0.0898438 L 73.429688 0.0898438 L 67.847656 31.402344 L 73.371094 31.402344 L 78.117188 25.667969 L 82.113281 31.402344 L 88.773438 31.402344 L 88.84375 30.996094 Z M 81.695312 21.34375 " fill-opacity="1" fill-rule="nonzero"/></g></svg>